Coordinates
version=1
nRows=19
nColumns=63
inDegrees=yes

Units are S.I. units (second, meters, Newtons, ...)
If the header above contains a line with 'inDegrees', this indicates whether rotational values are in degrees (yes) or radians (no).

endheader
time	pelvis_tilt	pelvis_list	pelvis_rotation	pelvis_tx	pelvis_ty	pelvis_tz	hip_flexion_r	hip_adduction_r	hip_rotation_r	knee_angle_r	knee_angle_r_beta	ankle_angle_r	subtalar_angle_r	mtp_angle_r	hip_flexion_l	hip_adduction_l	hip_rotation_l	knee_angle_l	knee_angle_l_beta	ankle_angle_l	subtalar_angle_l	mtp_angle_l	L5_S1_Flex_Ext	L5_S1_Lat_Bending	L5_S1_axial_rotation	L4_L5_Flex_Ext	L4_L5_Lat_Bending	L4_L5_axial_rotation	L3_L4_Flex_Ext	L3_L4_Lat_Bending	L3_L4_axial_rotation	L2_L3_Flex_Ext	L2_L3_Lat_Bending	L2_L3_axial_rotation	L1_L2_Flex_Ext	L1_L2_Lat_Bending	L1_L2_axial_rotation	L1_T12_Flex_Ext	L1_T12_Lat_Bending	L1_T12_axial_rotation	Abs_r3	Abs_r2	Abs_r1	Abs_t1	Abs_t2	neck_flexion	neck_bending	neck_rotation	arm_flex_r	arm_add_r	arm_rot_r	elbow_flex_r	pro_sup_r	wrist_flex_r	wrist_dev_r	arm_flex_l	arm_add_l	arm_rot_l	elbow_flex_l	pro_sup_l	wrist_flex_l	wrist_dev_l
4.711864	-5.539386	4.628841	64.871282	0.192690	0.940620	0.559047	5.754394	-4.316693	0.404282	20.622046	0.359923	32.441015	-1.457075	0.000000	4.885438	2.964622	5.178090	14.024161	0.244768	40.971134	2.379578	0.000000	-0.110152	0.710824	-1.872872	-0.204563	0.945396	-1.989926	-0.180969	1.728297	-1.989926	-0.125893	1.728297	-1.638763	-0.102287	1.449512	-1.521708	-0.062941	1.101066	-1.404654	-0.786804	8.040982	-10.416350	0.000000	0.000000	-7.668765	-14.415389	28.163914	-442.925484	-48.677567	-538.305103	149.885116	18.096839	42.534752	15.612537	106.522656	-10.981663	170.374721	15.660925	5.966427	3.438520	-0.367112
4.728814	-5.880911	4.631603	65.324866	0.192828	0.940024	0.560175	5.859354	-4.591344	0.337275	20.642490	0.360279	32.523769	-1.557474	0.000000	5.032697	3.219757	5.336526	13.870870	0.242092	40.803812	2.617712	0.000000	-0.093685	0.654314	-1.764034	-0.173983	0.870238	-1.874286	-0.153916	1.590899	-1.874286	-0.107073	1.590899	-1.543529	-0.086996	1.334277	-1.433277	-0.053532	1.013532	-1.323025	-0.669185	7.401730	-9.811026	0.000000	0.000000	-8.128384	-13.802767	27.747923	-442.332994	-50.400404	-535.899767	149.851048	20.581045	43.514699	11.076096	106.588405	-10.516835	170.521141	15.407616	6.615223	2.541466	-0.664860
4.745763	-6.197053	4.611228	65.781057	0.193022	0.939565	0.561253	5.966953	-4.817154	0.281032	20.601337	0.359561	32.625592	-1.644198	0.000000	5.210962	3.435050	5.423952	13.748299	0.239953	40.680651	2.964472	0.000000	-0.080071	0.605183	-1.691780	-0.148700	0.804893	-1.797517	-0.131549	1.471442	-1.797517	-0.091513	1.471442	-1.480308	-0.074354	1.234089	-1.374572	-0.045753	0.937428	-1.268835	-0.571939	6.845950	-9.409175	0.000000	0.000000	-8.332424	-13.359795	27.662370	-441.430140	-52.427421	-533.597754	149.824759	22.787390	44.360643	7.259624	106.528197	-10.482181	168.901132	15.259235	6.214201	1.610125	0.183548
4.762712	-6.460860	4.570994	66.240422	0.193207	0.939287	0.562162	6.046670	-4.978021	0.218792	20.480026	0.357444	32.747671	-1.710846	0.000000	5.399477	3.595190	5.458411	13.645790	0.238164	40.612911	3.416153	0.000000	-0.068945	0.566561	-1.648766	-0.128038	0.753526	-1.751813	-0.113270	1.377537	-1.751813	-0.078798	1.377537	-1.442670	-0.064023	1.155331	-1.339622	-0.039395	0.877603	-1.236574	-0.492469	6.409052	-9.169939	0.000000	0.000000	-8.356979	-13.095690	27.814186	-440.370401	-54.606531	-531.545086	149.805477	25.010523	45.046344	3.993470	106.374668	-10.704940	166.227557	15.081925	5.941855	0.648531	1.496942
4.779661	-6.635965	4.511150	66.680288	0.193343	0.939201	0.562861	6.086274	-5.043775	0.168160	20.281782	0.353984	32.882955	-1.768186	0.000000	5.580291	3.671644	5.441065	13.558514	0.236641	40.615389	3.950347	0.000000	-0.060426	0.542710	-1.625374	-0.112217	0.721805	-1.726960	-0.099274	1.319546	-1.726960	-0.069061	1.319546	-1.422202	-0.056112	1.106695	-1.320616	-0.034527	0.840658	-1.219031	-0.431617	6.139249	-9.039843	0.000000	0.000000	-8.294092	-12.991576	28.133477	-439.366589	-56.774193	-529.803366	149.789442	27.168168	45.584522	1.147803	106.132458	-11.097657	162.938988	14.842914	6.282330	-0.333850	3.114032
4.796610	-6.703299	4.445056	67.111351	0.193350	0.939321	0.563349	6.065736	-5.009072	0.111407	20.007641	0.349199	33.028594	-1.826073	0.000000	5.732448	3.661761	5.436754	13.481824	0.235302	40.678871	4.503318	0.000000	-0.057199	0.538477	-1.615528	-0.106224	0.716175	-1.716499	-0.093972	1.309254	-1.716499	-0.065373	1.309254	-1.413587	-0.053115	1.098063	-1.312617	-0.032683	0.834101	-1.211646	-0.408566	6.091362	-8.985082	0.000000	0.000000	-8.137239	-13.116642	28.668900	-438.659142	-58.772853	-528.739010	149.776527	28.930717	45.909503	-0.965215	106.294515	-11.923673	167.766629	15.021801	3.646349	-0.866796	4.882902
4.813559	-6.648073	4.391101	67.526610	0.193217	0.939634	0.563620	5.962216	-4.870196	0.046712	19.662983	0.343184	33.190481	-1.874188	0.000000	5.821014	3.560585	5.473713	13.403504	0.233935	40.794510	5.022611	0.000000	-0.058883	0.548915	-1.618951	-0.109352	0.730056	-1.720136	-0.096739	1.334631	-1.720136	-0.067297	1.334631	-1.416582	-0.054679	1.119346	-1.315398	-0.033646	0.850269	-1.214213	-0.420595	6.209431	-9.004120	0.000000	0.000000	-8.026184	-13.296021	29.141447	-438.079471	-60.561327	-528.098659	149.767023	30.161294	46.126242	-2.097168	106.114198	-12.786085	168.021591	14.921524	3.475426	-1.467738	6.985531
4.830508	-6.474943	4.359960	67.933538	0.192944	0.940091	0.563729	5.779171	-4.632053	-0.014830	19.269449	0.336315	33.367571	-1.952088	0.000000	5.835274	3.374330	5.566671	13.320677	0.232490	40.949513	5.476911	0.000000	-0.066565	0.571747	-1.637137	-0.123618	0.760424	-1.739458	-0.109359	1.390146	-1.739458	-0.076077	1.390146	-1.432495	-0.061812	1.165907	-1.330174	-0.038035	0.885636	-1.227853	-0.475466	6.467718	-9.105265	0.000000	0.000000	-7.983838	-13.473852	29.503466	-437.620991	-62.069223	-527.951649	149.761032	30.956589	46.284725	-2.215197	105.715658	-13.521451	164.145700	14.592500	4.443551	-2.172807	8.795107
4.847458	-6.192178	4.344048	68.319796	0.192556	0.940650	0.563719	5.534006	-4.298664	-0.066070	18.837141	0.328770	33.549287	-2.046765	0.000000	5.776701	3.102999	5.701629	13.223927	0.230801	41.124489	5.842239	0.000000	-0.079787	0.606024	-1.667099	-0.148172	0.806013	-1.771292	-0.131082	1.473488	-1.771292	-0.091188	1.473488	-1.458711	-0.074090	1.235805	-1.354518	-0.045590	0.938732	-1.250324	-0.569910	6.855470	-9.271903	0.000000	0.000000	-8.017645	-13.630501	29.720484	-437.286045	-63.237132	-528.300492	149.758642	31.245541	46.431223	-1.265183	105.121182	-14.171227	156.230341	14.080462	6.585516	-3.111179	10.306641
4.864407	-5.816783	4.332434	68.700988	0.192038	0.941240	0.563623	5.261168	-3.886665	-0.155713	18.399404	0.321130	33.741196	-2.113392	0.000000	5.666270	2.746835	5.816950	13.118399	0.228959	41.323625	6.206447	0.000000	-0.097378	0.649568	-1.706522	-0.180841	0.863926	-1.813180	-0.159983	1.579361	-1.813180	-0.111294	1.579361	-1.493207	-0.090425	1.324600	-1.386549	-0.055642	1.006181	-1.279892	-0.695563	7.348047	-9.491164	0.000000	0.000000	-8.094905	-13.718606	29.775699	-437.084591	-64.007807	-529.091343	149.760480	30.610381	46.617498	1.018524	104.440164	-14.605391	146.408018	13.347421	9.167119	-4.216766	11.269040
4.881356	-5.384640	4.308126	69.059084	0.191491	0.941801	0.563496	5.003938	-3.409255	-0.197449	17.977771	0.313771	33.920766	-2.239781	0.000000	5.516422	2.325455	5.902007	12.972548	0.226414	41.520155	6.548885	0.000000	-0.116670	0.698346	-1.745445	-0.216668	0.928801	-1.854535	-0.191678	1.697959	-1.854535	-0.133343	1.697959	-1.527264	-0.108340	1.424068	-1.418174	-0.066665	1.081738	-1.309083	-0.833365	7.899833	-9.707639	0.000000	0.000000	-8.173728	-13.727116	29.682878	-436.985925	-64.351317	-530.181998	149.765460	29.694504	46.885084	3.812181	103.713942	-14.783366	134.203069	12.461309	12.497732	-5.619865	11.575238
4.898305	-4.911646	4.256883	69.395183	0.190913	0.942301	0.563364	4.787855	-2.877652	-0.201794	17.580767	0.306842	34.080451	-2.401203	0.000000	5.344812	1.850693	6.005712	12.777670	0.223012	41.693457	6.808887	0.000000	-0.136211	0.752361	-1.768569	-0.252957	1.000640	-1.879104	-0.223781	1.829290	-1.879104	-0.155676	1.829290	-1.547498	-0.126486	1.534214	-1.436962	-0.077831	1.165407	-1.326427	-0.972942	8.510854	-9.836249	0.000000	0.000000	-8.189746	-13.679479	29.462933	-437.060460	-64.227472	-531.435975	149.772982	28.312136	47.229379	6.873365	102.925654	-14.700512	120.953798	11.509037	15.412409	-7.296084	11.279621
4.915254	-4.441405	4.192854	69.734065	0.190391	0.942721	0.563291	4.620020	-2.328645	-0.133783	17.219820	0.300543	34.217582	-2.662522	0.000000	5.152466	1.356114	6.065851	12.515733	0.218441	41.838020	7.111218	0.000000	-0.155088	0.804356	-1.764691	-0.288015	1.069793	-1.874984	-0.254795	1.955711	-1.874984	-0.177251	1.955711	-1.544104	-0.144015	1.640242	-1.433811	-0.088618	1.245947	-1.323518	-1.107782	9.099034	-9.814679	0.000000	0.000000	-8.123405	-13.567224	29.068422	-437.237240	-63.662016	-532.668727	149.781596	27.487353	47.612295	9.094421	102.172399	-14.189213	106.274190	10.509818	19.284260	-9.197132	10.288140
4.932203	-3.970915	4.109979	70.094218	0.189854	0.943052	0.563316	4.510586	-1.762146	-0.007889	16.901935	0.294994	34.312549	-3.036247	0.000000	4.953275	0.844163	6.149260	12.186977	0.212703	41.938879	7.407843	0.000000	-0.173623	0.857771	-1.720160	-0.322435	1.140835	-1.827670	-0.285245	2.085583	-1.827670	-0.198434	2.085583	-1.505140	-0.161226	1.749166	-1.397630	-0.099208	1.328687	-1.290120	-1.240171	9.703272	-9.567012	0.000000	0.000000	-7.918811	-13.482541	28.537962	-437.581044	-62.682008	-533.920541	149.790917	26.974240	47.833998	10.595596	101.458854	-13.269624	90.781439	9.518946	24.158776	-10.994424	8.802648
4.949153	-3.508073	4.020879	70.476997	0.189292	0.943303	0.563477	4.450675	-1.195306	0.166457	16.629400	0.290238	34.363703	-3.506055	0.000000	4.740092	0.327097	6.249734	11.794555	0.205854	41.995946	7.727661	0.000000	-0.193602	0.912053	-1.628478	-0.359539	1.213030	-1.730257	-0.318069	2.217565	-1.730257	-0.221268	2.217565	-1.424918	-0.179779	1.859858	-1.323138	-0.110624	1.412770	-1.221358	-1.382881	10.317323	-9.057103	0.000000	0.000000	-7.579831	-13.455865	27.878197	-438.081444	-61.388920	-535.229916	149.800835	26.535927	47.870123	11.719428	100.818984	-12.008792	74.997478	8.559107	29.883193	-12.331587	7.043974
4.966102	-3.059009	3.934340	70.890101	0.188684	0.943494	0.563843	4.444496	-0.643614	0.369181	16.413032	0.286461	34.364424	-4.059972	0.000000	4.515022	-0.178406	6.423049	11.339449	0.197911	41.980859	8.015046	0.000000	-0.215344	0.966815	-1.494385	-0.399915	1.285864	-1.587784	-0.353788	2.350714	-1.587784	-0.246116	2.350714	-1.307587	-0.199968	1.971529	-1.214188	-0.123047	1.497596	-1.120789	-1.538179	10.936803	-8.311320	0.000000	0.000000	-7.101267	-13.533842	27.120596	-438.664917	-59.907552	-536.590292	149.810261	26.585001	47.565959	12.242428	100.237037	-10.541729	59.271111	7.743515	36.172281	-12.884197	5.294305
4.983051	-2.605847	3.858746	71.344392	0.187969	0.943676	0.564405	4.468020	-0.098066	0.571481	16.241301	0.283464	34.305621	-4.693161	0.000000	4.272118	-0.681645	6.728045	10.834550	0.189099	41.888205	8.223345	0.000000	-0.240973	1.025840	-1.328094	-0.447511	1.364367	-1.411100	-0.395895	2.494226	-1.411100	-0.275408	2.494226	-1.162082	-0.223768	2.091892	-1.079076	-0.137692	1.589026	-0.996070	-1.721247	11.604503	-7.386459	0.000000	0.000000	-6.501433	-13.764251	26.329623	-439.323736	-58.357718	-538.102144	149.819414	26.839732	47.017711	12.578850	99.565928	-9.215673	42.108026	7.103487	42.811446	-12.567211	4.144470
5.000000	-2.151468	3.791119	71.804216	0.187185	0.943854	0.565150	4.525218	0.435103	0.764465	16.113939	0.281241	34.199059	-5.351660	0.000000	4.032249	-1.191574	6.788504	10.309205	0.179930	41.804477	8.783725	0.000000	-0.268702	1.087128	-1.142207	-0.499007	1.445880	-1.213595	-0.441451	2.643242	-1.213595	-0.307100	2.643242	-0.999431	-0.249517	2.216871	-0.928043	-0.153537	1.683961	-0.856655	-1.919314	12.297805	-6.352614	0.000000	0.000000	-5.831581	-14.126025	25.542190	-439.945421	-56.891888	-539.626395	149.827689	27.224247	46.376672	12.885870	98.693996	-7.892156	29.185262	6.921874	49.403289	-10.441482	3.211473
5.016949	-1.712416	3.748217	72.276382	0.186361	0.944065	0.566017	4.591848	0.934001	0.936604	16.034693	0.279858	34.062981	-6.032087	0.000000	3.767280	-1.669259	7.109528	9.747365	0.170124	41.614449	9.049791	0.000000	-0.299101	1.149832	-0.947308	-0.555460	1.529276	-1.006515	-0.491392	2.795701	-1.006515	-0.341842	2.795701	-0.828895	-0.277745	2.344737	-0.769688	-0.170906	1.781089	-0.710481	-2.136446	13.007125	-5.268643	0.000000	0.000000	-5.134478	-14.612662	24.801331	-440.516500	-55.538595	-541.202576	149.834771	27.692435	45.702566	13.139617	97.687654	-6.868539	12.852301	6.591929	56.111418	-8.488801	3.290672
